<?xml version="1.0" standalone="no"?>
<!DOCTYPE svg PUBLIC "-//W3C//DTD SVG 20010904//EN"
 "http://www.w3.org/TR/2001/REC-SVG-20010904/DTD/svg10.dtd">
<svg version="1.0" xmlns="http://www.w3.org/2000/svg"
 width="1066.000000pt" height="1280.000000pt" viewBox="0 0 1066.000000 1280.000000"
 preserveAspectRatio="xMidYMid meet">
<metadata>
Created by potrace 1.15, written by Peter Selinger 2001-2017
</metadata>
<g transform="translate(0.000000,1280.000000) scale(0.100000,-0.100000)"
fill="#FFFFFF" stroke="none">
<path d="M5265 11691 c-22 -3 -45 -10 -51 -14 -7 -4 -63 -15 -125 -26 -89 -15
-142 -31 -243 -75 -70 -30 -145 -68 -165 -83 -146 -110 -402 -413 -454 -538
-38 -93 -85 -246 -97 -316 -15 -99 -13 -631 5 -779 42 -362 79 -540 200 -951
86 -294 105 -431 106 -769 1 -301 -23 -529 -73 -705 -28 -96 -173 -496 -227
-622 -32 -76 -66 -163 -76 -193 -10 -30 -70 -192 -135 -360 -221 -576 -380
-1239 -465 -1935 -20 -165 -45 -363 -55 -440 -37 -268 -42 -379 -37 -761 4
-306 8 -393 26 -509 30 -202 76 -431 115 -575 19 -69 42 -170 51 -225 30 -184
104 -436 180 -615 29 -69 67 -159 84 -200 17 -42 56 -118 87 -170 31 -52 87
-156 125 -232 70 -139 119 -204 265 -353 88 -90 28 -85 1004 -87 l855 -2 56
26 c38 17 70 43 105 83 27 32 74 84 106 117 43 44 75 94 132 206 41 81 99 188
129 237 29 50 69 128 89 175 20 47 59 137 87 200 64 149 145 419 177 590 13
74 38 182 55 240 33 118 90 392 113 550 30 205 36 316 36 649 0 331 -5 414
-44 716 -8 66 -29 242 -46 390 -29 252 -106 710 -151 905 -11 47 -58 227 -104
401 -66 245 -106 371 -176 555 -50 132 -113 300 -139 374 -26 74 -70 189 -98
255 -61 146 -194 526 -221 633 -50 193 -76 503 -66 762 11 277 34 417 116 694
110 372 116 397 154 616 56 332 65 433 65 762 0 218 -4 316 -14 370 -19 92
-68 244 -106 323 -56 118 -343 446 -450 515 -83 53 -280 131 -369 146 -47 7
-108 20 -136 28 -65 19 -149 27 -200 17z"/>
</g>
</svg>
